<svg xmlns="http://www.w3.org/2000/svg" xmlns:xlink="http://www.w3.org/1999/xlink"><defs><symbol viewBox="0 0 24 24" fill="none" id="svg-icon-cart">
<path fill-rule="evenodd" clip-rule="evenodd" d="M5.68638 4.14285L5.35476 2.78357C5.09658 1.73512 4.17153 0.999938 3.11054 1H2V2.57142H3.11054C3.47355 2.56065 3.79474 2.80935 3.88175 3.16856L6.62725 14.5457L6.9126 15.7164C7.17282 16.7734 8.11035 17.5109 9.17995 17.4999H19.7378V15.9285H9.17995C8.81694 15.9393 8.49574 15.6906 8.40874 15.3314L8.3162 14.9385L19.7378 12.1964C20.5822 11.9964 21.246 11.3322 21.4576 10.4757L23 4.14285H5.68638ZM19.9923 10.0985C19.9209 10.3855 19.6973 10.6072 19.4139 10.6721L7.96144 13.4142L6.07198 5.71427H21.0643L19.9923 10.0985ZM5.85604 20.6428C5.85604 19.341 6.89189 18.2857 8.16967 18.2857C9.44745 18.2857 10.4833 19.341 10.4833 20.6428C10.4833 21.9446 9.44745 22.9999 8.16967 22.9999C6.89189 22.9999 5.85604 21.9446 5.85604 20.6428ZM7.39846 20.6428C7.39846 21.0767 7.74374 21.4285 8.16967 21.4285C8.59559 21.4285 8.94087 21.0767 8.94087 20.6428C8.94087 20.2089 8.59559 19.8571 8.16967 19.8571C7.74374 19.8571 7.39846 20.2089 7.39846 20.6428ZM15.2867 19.7408C15.6448 18.86 16.4884 18.2857 17.4242 18.2857C18.7019 18.2857 19.7378 19.341 19.7378 20.6428C19.7378 21.5962 19.1741 22.4557 18.3096 22.8205C17.445 23.1853 16.4499 22.9837 15.7882 22.3095C15.1265 21.6354 14.9285 20.6216 15.2867 19.7408ZM16.653 20.6428C16.653 21.0767 16.9982 21.4285 17.4242 21.4285C17.8501 21.4285 18.1954 21.0767 18.1954 20.6428C18.1954 20.2089 17.8501 19.8571 17.4242 19.8571C16.9982 19.8571 16.653 20.2089 16.653 20.6428Z" fill="var(--nav-icon)" />
</symbol><symbol viewBox="0 0 24 24" fill="none" id="svg-icon-facebook">
<path fill-rule="evenodd" clip-rule="evenodd" d="M13.2054 22V11.9988H15.9661L16.332 8.55237H13.2054L13.2101 6.82738C13.2101 5.92849 13.2955 5.44685 14.5865 5.44685H16.3124V2H13.5513C10.2347 2 9.06735 3.6719 9.06735 6.48352V8.55276H7V11.9992H9.06735V22H13.2054Z" fill="var(--social-icon)" />
</symbol><symbol viewBox="0 0 24 24" fill="none" id="svg-icon-instagram">
<path fill-rule="evenodd" clip-rule="evenodd" d="M12.0004 1.99896C9.28442 1.99896 8.94356 2.01084 7.87683 2.05938C6.81218 2.10814 6.08547 2.27669 5.4496 2.524C4.79185 2.77943 4.23389 3.12112 3.67803 3.67719C3.12174 4.23306 2.78005 4.79101 2.52379 5.44855C2.27586 6.08463 2.10709 6.81155 2.05917 7.87579C2.01146 8.94252 1.99896 9.28359 1.99896 11.9996C1.99896 14.7156 2.01105 15.0554 2.05938 16.1221C2.10834 17.1868 2.2769 17.9135 2.524 18.5494C2.77964 19.2071 3.12132 19.7651 3.6774 20.3209C4.23306 20.8772 4.79101 21.2197 5.44835 21.4752C6.08463 21.7225 6.81155 21.891 7.876 21.9398C8.94273 21.9883 9.28338 22.0002 11.9992 22.0002C14.7154 22.0002 15.0552 21.9883 16.1219 21.9398C17.1866 21.891 17.9141 21.7225 18.5504 21.4752C19.208 21.2197 19.7651 20.8772 20.3207 20.3209C20.877 19.7651 21.2187 19.2071 21.475 18.5496C21.7208 17.9135 21.8896 17.1866 21.9396 16.1223C21.9875 15.0556 22 14.7156 22 11.9996C22 9.28359 21.9875 8.94273 21.9396 7.876C21.8896 6.81135 21.7208 6.08463 21.475 5.44876C21.2187 4.79101 20.877 4.23306 20.3207 3.67719C19.7645 3.12091 19.2082 2.77922 18.5498 2.524C17.9123 2.27669 17.1851 2.10814 16.1205 2.05938C15.0537 2.01084 14.7141 1.99896 11.9973 1.99896H12.0004ZM11.1033 3.80116C11.2774 3.80089 11.4648 3.80097 11.6669 3.80106H11.6671L12.0004 3.80116C14.6706 3.80116 14.9871 3.81074 16.0415 3.85866C17.0166 3.90325 17.5458 4.06618 17.8983 4.20306C18.365 4.38432 18.6977 4.601 19.0475 4.95102C19.3976 5.30104 19.6142 5.6344 19.7959 6.10109C19.9328 6.4532 20.0959 6.9824 20.1403 7.95746C20.1882 9.01169 20.1986 9.32838 20.1986 11.9973C20.1986 14.6662 20.1882 14.9829 20.1403 16.0371C20.0957 17.0122 19.9328 17.5414 19.7959 17.8935C19.6146 18.3602 19.3976 18.6925 19.0475 19.0423C18.6975 19.3923 18.3652 19.609 17.8983 19.7903C17.5462 19.9278 17.0166 20.0903 16.0415 20.1349C14.9873 20.1828 14.6706 20.1932 12.0004 20.1932C9.33005 20.1932 9.01357 20.1828 7.95934 20.1349C6.98427 20.0899 6.45507 19.927 6.10234 19.7901C5.63565 19.6088 5.30229 19.3921 4.95227 19.0421C4.60225 18.6921 4.38557 18.3596 4.20389 17.8927C4.06701 17.5406 3.90387 17.0114 3.8595 16.0363C3.81158 14.9821 3.80199 14.6654 3.80199 11.9948C3.80199 9.32421 3.81158 9.00919 3.8595 7.95496C3.90408 6.9799 4.06701 6.4507 4.20389 6.09818C4.38515 5.63148 4.60225 5.29813 4.95227 4.94811C5.30229 4.59808 5.63565 4.3814 6.10234 4.19973C6.45487 4.06222 6.98427 3.89971 7.95934 3.85491C8.88189 3.81324 9.23942 3.80074 11.1033 3.79866V3.80116ZM17.3387 5.46168C16.6761 5.46168 16.1386 5.99859 16.1386 6.66134C16.1386 7.32388 16.6761 7.86141 17.3387 7.86141C18.0012 7.86141 18.5387 7.32388 18.5387 6.66134C18.5387 5.9988 18.0012 5.46126 17.3387 5.46126V5.46168ZM6.86468 11.9996C6.86468 9.16344 9.16409 6.86396 12.0002 6.86385C14.8364 6.86385 17.1353 9.16337 17.1353 11.9996C17.1353 14.8358 14.8366 17.1343 12.0004 17.1343C9.1642 17.1343 6.86468 14.8358 6.86468 11.9996ZM15.334 11.9996C15.334 10.1584 13.8414 8.66605 12.0004 8.66605C10.1593 8.66605 8.66688 10.1584 8.66688 11.9996C8.66688 13.8405 10.1593 15.3331 12.0004 15.3331C13.8414 15.3331 15.334 13.8405 15.334 11.9996Z" fill="var(--social-icon)" />
</symbol><symbol viewBox="0 0 24 24" fill="none" id="svg-icon-left-arrow">
<path fill-rule="evenodd" clip-rule="evenodd" d="M7.85981 8.11673C7.6729 7.96109 7.36985 7.96109 7.18293 8.11673L2.14019 12.3158L2.084 12.3719C1.95329 12.53 1.97541 12.7488 2.14834 12.8861L7.19108 16.8899L7.25866 16.9347C7.44823 17.0386 7.70562 17.0181 7.86777 16.8765L7.92156 16.8202C8.04631 16.6624 8.02172 16.448 7.85166 16.313L3.67891 13H22.0238L22.1094 12.9919C22.3315 12.9496 22.5 12.7455 22.5 12.5C22.5 12.2239 22.2868 12 22.0238 12H3.87229L7.85981 8.68037L7.91519 8.62517C8.04442 8.46984 8.02596 8.25508 7.85981 8.11673Z" fill="var(--left-arrow)" />
</symbol><symbol viewBox="0 0 176 31" fill="none" id="svg-icon-logo">
<path d="M53.0653 19.3076H46.433L45.0938 22.4112H41.1612L48.1548 7.42478H51.2584L58.2733 22.4112H54.4045L53.0653 19.3076ZM51.8111 16.3741L49.7491 11.5699L47.6872 16.3741H51.8111Z" fill="var(--main-text)" />
<path d="M59.1606 7.42478H63.072V19.2438H69.4492V22.4112H59.1606V7.42478Z" fill="var(--main-text)" />
<path d="M71.3254 7.42478H78.5742C80.2323 7.42478 81.5219 7.84992 82.443 8.70021C83.3642 9.53633 83.8247 10.7055 83.8247 12.2077C83.8247 13.6957 83.3571 14.8648 82.4218 15.7151C81.5006 16.5654 80.2181 16.9906 78.5742 16.9906H75.2368V22.4112H71.3254V7.42478ZM78.0428 14.0571C78.7655 14.0571 79.2969 13.9082 79.6371 13.6106C79.9913 13.313 80.1685 12.8525 80.1685 12.2289C80.1685 11.6054 79.9913 11.1448 79.6371 10.8472C79.2969 10.5354 78.7655 10.3795 78.0428 10.3795H75.2368V14.0571H78.0428Z" fill="var(--main-text)" />
<path d="M99.4862 7.42478V22.4112H95.6599V16.3528H89.5378V22.4112H85.7115V7.42478H89.5378V13.2493H95.6599V7.42478H99.4862Z" fill="var(--main-text)" />
<path d="M112.291 19.3076H105.659L104.319 22.4112H100.387L107.38 7.42478H110.484L117.499 22.4112H113.63L112.291 19.3076ZM111.037 16.3741L108.975 11.5699L106.913 16.3741H111.037Z" fill="var(--main-text)" />
<path d="M129.889 22.6025C128.77 22.6025 127.664 22.4537 126.573 22.1561C125.482 21.8585 124.596 21.4617 123.916 20.9657L125.128 18.2022C125.85 18.6557 126.623 19.0029 127.445 19.2438C128.267 19.4847 129.096 19.6052 129.932 19.6052C130.782 19.6052 131.427 19.4918 131.866 19.2651C132.32 19.0242 132.546 18.6911 132.546 18.266C132.546 17.8834 132.341 17.5716 131.93 17.3307C131.533 17.0898 130.768 16.8488 129.634 16.6079C128.231 16.3103 127.133 15.956 126.339 15.5451C125.546 15.1341 124.986 14.6523 124.66 14.0996C124.348 13.5469 124.192 12.8666 124.192 12.0589C124.192 11.1377 124.447 10.3158 124.958 9.59302C125.482 8.8561 126.212 8.28215 127.147 7.87118C128.097 7.44603 129.181 7.23346 130.399 7.23346C131.476 7.23346 132.518 7.38935 133.524 7.70112C134.545 7.99872 135.338 8.38844 135.905 8.87027L134.715 11.6337C133.354 10.6984 131.923 10.2307 130.421 10.2307C129.698 10.2307 129.117 10.3725 128.678 10.6559C128.238 10.9251 128.019 11.2865 128.019 11.74C128.019 12.0093 128.097 12.2289 128.252 12.399C128.408 12.569 128.699 12.7391 129.124 12.9092C129.549 13.065 130.18 13.228 131.016 13.3981C132.376 13.6957 133.446 14.057 134.226 14.4822C135.005 14.8932 135.558 15.375 135.884 15.9277C136.21 16.4804 136.373 17.1394 136.373 17.9046C136.373 19.3785 135.806 20.5334 134.672 21.3696C133.538 22.1915 131.944 22.6025 129.889 22.6025Z" fill="var(--main-text)" />
<path d="M145.366 11.6975C146.613 11.6975 147.541 12.073 148.151 12.8241C148.76 13.561 149.065 14.6877 149.065 16.204V22.4112H145.281V16.3741C145.281 15.7505 145.168 15.2971 144.941 15.0136C144.728 14.7302 144.402 14.5885 143.963 14.5885C143.396 14.5885 142.943 14.7727 142.602 15.1412C142.277 15.4955 142.114 15.9773 142.114 16.5867V22.4112H138.33V7.42478H142.114V13.2068C142.496 12.7108 142.964 12.3352 143.517 12.0801C144.069 11.825 144.686 11.6975 145.366 11.6975Z" fill="var(--main-text)" />
<path d="M156.472 22.5812C155.324 22.5812 154.311 22.3616 153.432 21.9222C152.568 21.4688 151.895 20.831 151.413 20.0091C150.945 19.1871 150.711 18.2235 150.711 17.1181C150.711 16.0127 150.945 15.0561 151.413 14.2484C151.895 13.4264 152.568 12.7958 153.432 12.3565C154.297 11.9171 155.31 11.6975 156.472 11.6975C157.634 11.6975 158.648 11.9171 159.512 12.3565C160.376 12.7958 161.042 13.4264 161.51 14.2484C161.992 15.0561 162.233 16.0127 162.233 17.1181C162.233 18.2235 161.992 19.1871 161.51 20.0091C161.042 20.831 160.376 21.4688 159.512 21.9222C158.648 22.3616 157.634 22.5812 156.472 22.5812ZM156.472 19.754C157.818 19.754 158.492 18.8754 158.492 17.1181C158.492 15.3608 157.818 14.4822 156.472 14.4822C155.126 14.4822 154.453 15.3608 154.453 17.1181C154.453 18.8754 155.126 19.754 156.472 19.754Z" fill="var(--main-text)" />
<path d="M170.876 11.6975C171.769 11.6975 172.563 11.9313 173.257 12.399C173.966 12.8525 174.511 13.4973 174.894 14.3334C175.291 15.1695 175.489 16.1261 175.489 17.2031C175.489 18.2802 175.291 19.2297 174.894 20.0516C174.511 20.8594 173.973 21.4829 173.278 21.9222C172.584 22.3616 171.783 22.5812 170.876 22.5812C170.21 22.5812 169.594 22.4466 169.027 22.1773C168.474 21.9081 168.042 21.5467 167.73 21.0932V26.2375H163.946V11.9526H167.666V13.2918C167.964 12.7958 168.396 12.4061 168.963 12.1226C169.544 11.8392 170.182 11.6975 170.876 11.6975ZM169.728 19.754C170.38 19.754 170.876 19.5343 171.216 19.095C171.571 18.6557 171.748 18.0251 171.748 17.2031C171.748 16.3387 171.571 15.6797 171.216 15.2262C170.862 14.7585 170.359 14.5247 169.707 14.5247C169.055 14.5247 168.552 14.7515 168.198 15.2049C167.844 15.6584 167.666 16.3103 167.666 17.1606C167.666 17.9967 167.844 18.6415 168.198 19.095C168.552 19.5343 169.062 19.754 169.728 19.754Z" fill="var(--main-text)" />
<path fill-rule="evenodd" clip-rule="evenodd" d="M19.9174 14.3148C19.9174 14.3148 14.1305 23.698 9.38607 23.698C1.08746 23.698 8.82117 5.82257 14.8736 5.82257C19.0969 5.82257 19.9174 14.3148 19.9174 14.3148Z" fill="var(--pink)" />
<path fill-rule="evenodd" clip-rule="evenodd" d="M26.7938 26.1153C25.1452 27.8695 23.1106 29.2156 20.8512 30.0468C18.5917 30.878 16.1697 31.1715 13.7771 30.904C11.3845 30.6364 9.08717 29.8152 7.06723 28.5055C5.04729 27.1958 3.36032 25.4335 2.14008 23.3585C3.51197 25.2244 5.83881 26.4683 9.14749 26.4683C17.2982 26.4683 21.9249 20.1344 21.9249 20.1344C21.9249 20.1344 22.3251 25.1403 26.7837 26.1153H26.7938Z" fill="var(--pink)" />
<path fill-rule="evenodd" clip-rule="evenodd" d="M29.2349 8.32721C30.4548 10.6581 31.0607 13.2613 30.9954 15.8912C30.9301 18.5211 30.1958 21.091 28.8617 23.3584C27.8065 22.7666 27.0263 21.7837 26.6895 20.6218L24.9208 15.3234L29.2349 8.32721Z" fill="#808080" />
<path fill-rule="evenodd" clip-rule="evenodd" d="M15.5025 0.0134609C19.3895 0.010876 23.1349 1.47159 25.9935 4.10493L23.058 8.84189C21.9955 6.07838 19.8368 3.31152 15.637 3.31152C7.03581 3.31152 0.660542 12.7014 0.660542 18.5882C0.658647 19.3495 0.755849 20.1078 0.949711 20.844C0.0895766 18.5013 -0.192161 15.9857 0.128433 13.5108C0.449026 11.0359 1.36248 8.67496 2.79115 6.62867C4.21983 4.58237 6.1215 2.91118 8.33454 1.75714C10.5476 0.603093 13.0066 0.000301095 15.5025 0V0.0134609Z" fill="#808080" />
</symbol><symbol viewBox="0 0 27 27" fill="none" id="svg-icon-minus">
<path fill-rule="evenodd" clip-rule="evenodd" d="M13 27C20.1797 27 26 20.9558 26 13.5C26 6.04416 20.1797 0 13 0C5.8203 0 0 6.04416 0 13.5C0 20.9558 5.8203 27 13 27Z" fill="var(--product-action-bg)" />
<rect x="7.37207" y="14.4" width="1.8" height="10.8411" rx="0.9" transform="rotate(-90 7.37207 14.4)" fill="var(--product-action-text)" />
</symbol><symbol viewBox="0 0 24 24" fill="none" id="svg-icon-moon">
<path d="M10.5 1.5C6.75 1.5 2.25 5.25 2.25 11.25C2.25 17.25 6.75 21.75 12.75 21.75C18.75 21.75 22.5 17.25 22.5 13.5C14.25 18.75 5.25 9.75 10.5 1.5Z" stroke="var(--nav-icon)" stroke-width="1.5" stroke-linecap="round" stroke-linejoin="round" />
</symbol><symbol viewBox="0 0 24 24" fill="none" id="svg-icon-pg-complete">
<circle cx="12" cy="12" r="12" fill="#333333" />
<path d="M9.99997 16.1699L5.82997 11.9999L4.40997 13.4099L9.99997 18.9999L20.5 8.49994L19.09 7.08994L9.99997 16.1699Z" fill="white" />
</symbol><symbol viewBox="0 0 27 27" fill="none" id="svg-icon-plus">
<path fill-rule="evenodd" clip-rule="evenodd" d="M13.9812 27C21.1609 27 26.9812 20.9558 26.9812 13.5C26.9812 6.04416 21.1609 0 13.9812 0C6.8015 0 0.981201 6.04416 0.981201 13.5C0.981201 20.9558 6.8015 27 13.9812 27Z" fill="var(--product-action-bg)" />
<path fill-rule="evenodd" clip-rule="evenodd" d="M13.7738 19.125C14.2528 19.125 14.6411 18.7367 14.6411 18.2577V14.3182H18.3762C18.8281 14.3182 19.1944 13.9519 19.1944 13.5C19.1944 13.0481 18.8281 12.6818 18.3762 12.6818H14.6411V8.74229C14.6411 8.2633 14.2528 7.875 13.7738 7.875C13.2948 7.875 12.9065 8.2633 12.9065 8.74229V12.6818H9.17145C8.71958 12.6818 8.35327 13.0481 8.35327 13.5C8.35327 13.9519 8.71958 14.3182 9.17145 14.3182H12.9065V18.2577C12.9065 18.7367 13.2948 19.125 13.7738 19.125Z" fill="var(--product-action-text)" />
</symbol><symbol viewBox="0 0 25 24" fill="none" id="svg-icon-right-arrow">
<path fill-rule="evenodd" clip-rule="evenodd" d="M16.6402 8.11673C16.8271 7.96109 17.1302 7.96109 17.3171 8.11673L22.3598 12.3158L22.416 12.3719C22.5467 12.53 22.5246 12.7488 22.3517 12.8861L17.3089 16.8899L17.2413 16.9347C17.0518 17.0386 16.7944 17.0181 16.6322 16.8765L16.5784 16.8202C16.4537 16.6624 16.4783 16.448 16.6483 16.313L20.8211 13H2.47619L2.39059 12.9919C2.16845 12.9496 2 12.7455 2 12.5C2 12.2239 2.2132 12 2.47619 12H20.6277L16.6402 8.68037L16.5848 8.62517C16.4556 8.46984 16.474 8.25508 16.6402 8.11673Z" fill="white" />
</symbol><symbol viewBox="0 0 24 24" fill="none" id="svg-icon-search">
<path fill-rule="evenodd" clip-rule="evenodd" d="M10.2297 18.4595C5.68458 18.4595 2 14.7749 2 10.2297C2 5.68458 5.68458 2 10.2297 2C14.7749 2 18.4595 5.68458 18.4595 10.2297C18.4595 12.1957 17.7701 14.0006 16.62 15.416L22.7506 21.5467C23.0831 21.8791 23.0831 22.4182 22.7506 22.7506C22.4182 23.0831 21.8791 23.0831 21.5467 22.7506L15.416 16.62C14.0006 17.7701 12.1957 18.4595 10.2297 18.4595ZM10.2297 16.7568C13.8345 16.7568 16.7568 13.8345 16.7568 10.2297C16.7568 6.62495 13.8345 3.7027 10.2297 3.7027C6.62495 3.7027 3.7027 6.62495 3.7027 10.2297C3.7027 13.8345 6.62495 16.7568 10.2297 16.7568Z" fill="var(--nav-icon)" />
</symbol><symbol viewBox="0 0 24 24" fill="none" id="svg-icon-sun">
<path d="M11.9999 4.20669C12.1767 4.20669 12.3463 4.13645 12.4713 4.01143C12.5963 3.8864 12.6666 3.71683 12.6666 3.54002V1.27336C12.6666 1.09655 12.5963 0.926976 12.4713 0.801952C12.3463 0.676927 12.1767 0.606689 11.9999 0.606689C11.8231 0.606689 11.6535 0.676927 11.5285 0.801952C11.4035 0.926976 11.3333 1.09655 11.3333 1.27336V3.54002C11.3333 3.71683 11.4035 3.8864 11.5285 4.01143C11.6535 4.13645 11.8231 4.20669 11.9999 4.20669Z" fill="var(--nav-icon)" fill-opacity="0.8" />
<path d="M11.9999 19.7933C11.8231 19.7933 11.6535 19.8636 11.5285 19.9886C11.4035 20.1136 11.3333 20.2832 11.3333 20.46V22.7267C11.3333 22.9035 11.4035 23.073 11.5285 23.1981C11.6535 23.3231 11.8231 23.3933 11.9999 23.3933C12.1767 23.3933 12.3463 23.3231 12.4713 23.1981C12.5963 23.073 12.6666 22.9035 12.6666 22.7267V20.46C12.6666 20.2832 12.5963 20.1136 12.4713 19.9886C12.3463 19.8636 12.1767 19.7933 11.9999 19.7933V19.7933Z" fill="var(--nav-icon)" fill-opacity="0.8" />
<path d="M5.54668 6.49335C5.67065 6.60603 5.83249 6.66792 6.00001 6.66668C6.08775 6.66719 6.17473 6.65037 6.25595 6.6172C6.33718 6.58402 6.41105 6.53514 6.47335 6.47335C6.53583 6.41137 6.58543 6.33764 6.61928 6.2564C6.65312 6.17516 6.67055 6.08802 6.67055 6.00002C6.67055 5.91201 6.65312 5.82487 6.61928 5.74363C6.58543 5.66239 6.53583 5.58866 6.47335 5.52668L4.88668 3.94668C4.75915 3.83746 4.5951 3.78039 4.42731 3.78687C4.25953 3.79335 4.10037 3.86291 3.98164 3.98164C3.86291 4.10037 3.79335 4.25953 3.78687 4.42731C3.78039 4.5951 3.83746 4.75915 3.94668 4.88668L5.54668 6.49335Z" fill="var(--nav-icon)" fill-opacity="0.8" />
<path d="M18.4533 17.5067C18.3911 17.4445 18.3173 17.3952 18.2361 17.3616C18.1549 17.3279 18.0678 17.3106 17.9799 17.3106C17.892 17.3106 17.805 17.3279 17.7238 17.3616C17.6426 17.3952 17.5688 17.4445 17.5066 17.5067C17.4444 17.5688 17.3951 17.6426 17.3615 17.7238C17.3279 17.8051 17.3105 17.8921 17.3105 17.98C17.3105 18.0679 17.3279 18.155 17.3615 18.2362C17.3951 18.3174 17.4444 18.3912 17.5066 18.4533L19.1133 20.0533C19.175 20.1163 19.2486 20.1664 19.3299 20.2008C19.4111 20.2351 19.4984 20.253 19.5866 20.2533C19.7625 20.2508 19.9302 20.1789 20.0533 20.0533C20.1774 19.9284 20.2471 19.7595 20.2471 19.5833C20.2471 19.4072 20.1774 19.2382 20.0533 19.1133L18.4533 17.5067Z" fill="var(--nav-icon)" fill-opacity="0.8" />
<path d="M4.20669 12C4.20669 11.8232 4.13645 11.6536 4.01143 11.5286C3.8864 11.4036 3.71683 11.3333 3.54002 11.3333H1.27336C1.09655 11.3333 0.926976 11.4036 0.801952 11.5286C0.676927 11.6536 0.606689 11.8232 0.606689 12C0.606689 12.1768 0.676927 12.3464 0.801952 12.4714C0.926976 12.5964 1.09655 12.6666 1.27336 12.6666H3.54002C3.71683 12.6666 3.8864 12.5964 4.01143 12.4714C4.13645 12.3464 4.20669 12.1768 4.20669 12Z" fill="var(--nav-icon)" fill-opacity="0.8" />
<path d="M22.7265 11.3333H20.4599C20.2831 11.3333 20.1135 11.4036 19.9885 11.5286C19.8635 11.6536 19.7932 11.8232 19.7932 12C19.7932 12.1768 19.8635 12.3464 19.9885 12.4714C20.1135 12.5964 20.2831 12.6666 20.4599 12.6666H22.7265C22.9034 12.6666 23.0729 12.5964 23.198 12.4714C23.323 12.3464 23.3932 12.1768 23.3932 12C23.3932 11.8232 23.323 11.6536 23.198 11.5286C23.0729 11.4036 22.9034 11.3333 22.7265 11.3333Z" fill="var(--nav-icon)" fill-opacity="0.8" />
<path d="M5.54672 17.5067L3.94672 19.1133C3.8531 19.2062 3.78912 19.3247 3.76286 19.4539C3.73661 19.5831 3.74925 19.7172 3.7992 19.8392C3.84916 19.9613 3.93417 20.0657 4.04349 20.1394C4.15281 20.2131 4.28153 20.2528 4.41338 20.2533C4.50159 20.253 4.58884 20.2351 4.67009 20.2008C4.75134 20.1664 4.82497 20.1163 4.88672 20.0533L6.49338 18.4533C6.61892 18.3278 6.68944 18.1575 6.68944 17.98C6.68944 17.8025 6.61892 17.6322 6.49338 17.5067C6.36785 17.3811 6.19758 17.3106 6.02005 17.3106C5.84252 17.3106 5.67225 17.3811 5.54672 17.5067V17.5067Z" fill="var(--nav-icon)" fill-opacity="0.8" />
<path d="M18.0001 6.66665C18.0879 6.66716 18.1748 6.65034 18.2561 6.61716C18.3373 6.58399 18.4112 6.5351 18.4735 6.47332L20.0735 4.86665C20.1976 4.74174 20.2673 4.57277 20.2673 4.39665C20.2673 4.22053 20.1976 4.05156 20.0735 3.92665C19.9485 3.80248 19.7796 3.73279 19.6035 3.73279C19.4273 3.73279 19.2584 3.80248 19.1335 3.92665L17.5268 5.52665C17.4643 5.58862 17.4147 5.66236 17.3809 5.7436C17.347 5.82484 17.3296 5.91197 17.3296 5.99998C17.3296 6.08799 17.347 6.17513 17.3809 6.25637C17.4147 6.33761 17.4643 6.41134 17.5268 6.47332C17.5891 6.5351 17.663 6.58399 17.7442 6.61716C17.8254 6.65034 17.9124 6.66716 18.0001 6.66665Z" fill="var(--nav-icon)" fill-opacity="0.8" />
<path d="M12.0866 5.16669C10.7473 5.14951 9.43324 5.53092 8.31132 6.26246C7.18939 6.994 6.31033 8.04262 5.78587 9.27502C5.26141 10.5074 5.11525 11.8679 5.36596 13.1836C5.61666 14.4993 6.25292 15.7107 7.19385 16.6639C8.13478 17.617 9.33788 18.2689 10.6502 18.5366C11.9625 18.8042 13.3248 18.6757 14.5639 18.1672C15.803 17.6587 16.8628 16.7932 17.6088 15.6808C18.3548 14.5684 18.7531 13.2594 18.7533 11.92C18.7621 10.1412 18.0654 8.43144 16.8157 7.16551C15.566 5.89958 13.8654 5.18079 12.0866 5.16669V5.16669ZM12.0866 17.3334C11.0108 17.3506 9.95424 17.0472 9.05145 16.4619C8.14866 15.8766 7.4405 15.0359 7.01714 14.0467C6.59379 13.0576 6.4744 11.9648 6.67418 10.9076C6.87396 9.85043 7.38387 8.8766 8.13898 8.11017C8.89409 7.34374 9.86022 6.81938 10.9143 6.60388C11.9685 6.38839 13.0629 6.49149 14.0582 6.90007C15.0535 7.30866 15.9047 8.00423 16.5034 8.8982C17.102 9.79218 17.4211 10.8441 17.4199 11.92C17.427 13.3441 16.87 14.713 15.8705 15.7274C14.8711 16.7419 13.5106 17.3193 12.0866 17.3334V17.3334Z" fill="var(--nav-icon)" fill-opacity="0.8" />
</symbol><symbol viewBox="0 0 24 24" fill="none" id="svg-icon-toggle">
<path d="M2 10.25H17V12.75H2V10.25ZM2 4H22V6.5H2V4ZM2 19H11.0437V16.5H2V19Z" fill="var(--main-text)" />
</symbol><symbol viewBox="0 0 24 24" fill="none" id="svg-icon-whatsapp">
<path fill-rule="evenodd" clip-rule="evenodd" d="M12.0419 21.9235C17.5323 21.9213 21.9978 17.4547 22 11.9654C22.0011 9.30464 20.9662 6.80272 19.0861 4.92051C17.206 3.03821 14.7057 2.00115 12.0418 2C6.55292 2 2.08567 6.467 2.08349 11.9576C2.08274 13.7127 2.54129 15.4257 3.41274 16.936L2 22.0962L7.27898 20.7114C8.73348 21.5048 10.3711 21.9229 12.0377 21.9235H12.0419ZM7.52357 18.9086L4.39095 19.7304L5.22709 16.6761L5.0303 16.3629C4.20177 15.0452 3.76418 13.5221 3.76482 11.9581C3.76663 7.39465 7.47965 3.68196 12.0451 3.68196C14.2559 3.68273 16.334 4.54474 17.8967 6.10924C19.4594 7.67374 20.3195 9.75323 20.3186 11.9648C20.3168 16.5287 16.6038 20.2417 12.0419 20.2417H12.0385C10.5533 20.2411 9.0966 19.8421 7.82581 19.088L7.52357 18.9086ZM16.718 14.1094C16.8915 14.1933 17.0087 14.2499 17.0587 14.3334C17.1209 14.4372 17.1209 14.9354 16.9137 15.5167C16.7062 16.0979 15.7122 16.6283 15.2341 16.6998C14.8054 16.7639 14.263 16.7906 13.6669 16.6012C13.3055 16.4865 12.8421 16.3334 12.2484 16.077C9.91578 15.0698 8.33939 12.8089 8.04146 12.3817C8.02058 12.3517 8.00599 12.3308 7.99784 12.3199L7.99584 12.3172C7.86416 12.1415 6.98184 10.9643 6.98184 9.74595C6.98184 8.59981 7.54484 7.99906 7.80399 7.72254C7.82175 7.70359 7.83808 7.68617 7.8527 7.6702C8.08077 7.42109 8.35035 7.35881 8.51622 7.35881C8.68208 7.35881 8.84814 7.36035 8.99311 7.36763C9.011 7.36853 9.0296 7.36842 9.04884 7.3683C9.19384 7.36745 9.37461 7.36639 9.55294 7.79475C9.62155 7.95961 9.72194 8.20401 9.82782 8.46178C10.0419 8.98303 10.2785 9.55894 10.3201 9.64228C10.3823 9.76683 10.4238 9.91208 10.3408 10.0782C10.3284 10.1031 10.3169 10.1266 10.3059 10.1491C10.2436 10.2763 10.1978 10.3698 10.092 10.4933C10.0505 10.5418 10.0075 10.5941 9.96452 10.6465C9.87892 10.7507 9.79333 10.855 9.71879 10.9292C9.59423 11.0533 9.46456 11.1879 9.6097 11.437C9.75485 11.6861 10.2542 12.5009 10.9939 13.1607C11.7891 13.8699 12.4801 14.1697 12.8304 14.3216C12.8988 14.3513 12.9543 14.3754 12.9949 14.3957C13.2436 14.5203 13.3888 14.4994 13.5339 14.3334C13.6791 14.1674 14.1559 13.6068 14.3218 13.3578C14.4876 13.1088 14.6536 13.1503 14.8816 13.2333C15.1097 13.3164 16.3331 13.9182 16.5819 14.0428C16.6305 14.0671 16.6759 14.089 16.718 14.1094Z" fill="var(--social-icon)" />
</symbol></defs></svg>