<svg width="24" height="24" viewBox="0 0 24 24" fill="none" xmlns="http://www.w3.org/2000/svg">
<path fill-rule="evenodd" clip-rule="evenodd" d="M12.0004 1.99896C9.28442 1.99896 8.94356 2.01084 7.87683 2.05938C6.81218 2.10814 6.08547 2.27669 5.4496 2.524C4.79185 2.77943 4.23389 3.12112 3.67803 3.67719C3.12174 4.23306 2.78005 4.79101 2.52379 5.44855C2.27586 6.08463 2.10709 6.81155 2.05917 7.87579C2.01146 8.94252 1.99896 9.28359 1.99896 11.9996C1.99896 14.7156 2.01105 15.0554 2.05938 16.1221C2.10834 17.1868 2.2769 17.9135 2.524 18.5494C2.77964 19.2071 3.12132 19.7651 3.6774 20.3209C4.23306 20.8772 4.79101 21.2197 5.44835 21.4752C6.08463 21.7225 6.81155 21.891 7.876 21.9398C8.94273 21.9883 9.28338 22.0002 11.9992 22.0002C14.7154 22.0002 15.0552 21.9883 16.1219 21.9398C17.1866 21.891 17.9141 21.7225 18.5504 21.4752C19.208 21.2197 19.7651 20.8772 20.3207 20.3209C20.877 19.7651 21.2187 19.2071 21.475 18.5496C21.7208 17.9135 21.8896 17.1866 21.9396 16.1223C21.9875 15.0556 22 14.7156 22 11.9996C22 9.28359 21.9875 8.94273 21.9396 7.876C21.8896 6.81135 21.7208 6.08463 21.475 5.44876C21.2187 4.79101 20.877 4.23306 20.3207 3.67719C19.7645 3.12091 19.2082 2.77922 18.5498 2.524C17.9123 2.27669 17.1851 2.10814 16.1205 2.05938C15.0537 2.01084 14.7141 1.99896 11.9973 1.99896H12.0004ZM11.1033 3.80116C11.2774 3.80089 11.4648 3.80097 11.6669 3.80106H11.6671L12.0004 3.80116C14.6706 3.80116 14.9871 3.81074 16.0415 3.85866C17.0166 3.90325 17.5458 4.06618 17.8983 4.20306C18.365 4.38432 18.6977 4.601 19.0475 4.95102C19.3976 5.30104 19.6142 5.6344 19.7959 6.10109C19.9328 6.4532 20.0959 6.9824 20.1403 7.95746C20.1882 9.01169 20.1986 9.32838 20.1986 11.9973C20.1986 14.6662 20.1882 14.9829 20.1403 16.0371C20.0957 17.0122 19.9328 17.5414 19.7959 17.8935C19.6146 18.3602 19.3976 18.6925 19.0475 19.0423C18.6975 19.3923 18.3652 19.609 17.8983 19.7903C17.5462 19.9278 17.0166 20.0903 16.0415 20.1349C14.9873 20.1828 14.6706 20.1932 12.0004 20.1932C9.33005 20.1932 9.01357 20.1828 7.95934 20.1349C6.98427 20.0899 6.45507 19.927 6.10234 19.7901C5.63565 19.6088 5.30229 19.3921 4.95227 19.0421C4.60225 18.6921 4.38557 18.3596 4.20389 17.8927C4.06701 17.5406 3.90387 17.0114 3.8595 16.0363C3.81158 14.9821 3.80199 14.6654 3.80199 11.9948C3.80199 9.32421 3.81158 9.00919 3.8595 7.95496C3.90408 6.9799 4.06701 6.4507 4.20389 6.09818C4.38515 5.63148 4.60225 5.29813 4.95227 4.94811C5.30229 4.59808 5.63565 4.3814 6.10234 4.19973C6.45487 4.06222 6.98427 3.89971 7.95934 3.85491C8.88189 3.81324 9.23942 3.80074 11.1033 3.79866V3.80116ZM17.3387 5.46168C16.6761 5.46168 16.1386 5.99859 16.1386 6.66134C16.1386 7.32388 16.6761 7.86141 17.3387 7.86141C18.0012 7.86141 18.5387 7.32388 18.5387 6.66134C18.5387 5.9988 18.0012 5.46126 17.3387 5.46126V5.46168ZM6.86468 11.9996C6.86468 9.16344 9.16409 6.86396 12.0002 6.86385C14.8364 6.86385 17.1353 9.16337 17.1353 11.9996C17.1353 14.8358 14.8366 17.1343 12.0004 17.1343C9.1642 17.1343 6.86468 14.8358 6.86468 11.9996ZM15.334 11.9996C15.334 10.1584 13.8414 8.66605 12.0004 8.66605C10.1593 8.66605 8.66688 10.1584 8.66688 11.9996C8.66688 13.8405 10.1593 15.3331 12.0004 15.3331C13.8414 15.3331 15.334 13.8405 15.334 11.9996Z" fill="var(--social-icon)"/>
</svg>
