<svg width="176" height="31" viewBox="0 0 176 31" fill="none" xmlns="http://www.w3.org/2000/svg">
<path d="M53.0653 19.3076H46.433L45.0938 22.4112H41.1612L48.1548 7.42478H51.2584L58.2733 22.4112H54.4045L53.0653 19.3076ZM51.8111 16.3741L49.7491 11.5699L47.6872 16.3741H51.8111Z" fill="var(--main-text)"/>
<path d="M59.1606 7.42478H63.072V19.2438H69.4492V22.4112H59.1606V7.42478Z" fill="var(--main-text)"/>
<path d="M71.3254 7.42478H78.5742C80.2323 7.42478 81.5219 7.84992 82.443 8.70021C83.3642 9.53633 83.8247 10.7055 83.8247 12.2077C83.8247 13.6957 83.3571 14.8648 82.4218 15.7151C81.5006 16.5654 80.2181 16.9906 78.5742 16.9906H75.2368V22.4112H71.3254V7.42478ZM78.0428 14.0571C78.7655 14.0571 79.2969 13.9082 79.6371 13.6106C79.9913 13.313 80.1685 12.8525 80.1685 12.2289C80.1685 11.6054 79.9913 11.1448 79.6371 10.8472C79.2969 10.5354 78.7655 10.3795 78.0428 10.3795H75.2368V14.0571H78.0428Z" fill="var(--main-text)"/>
<path d="M99.4862 7.42478V22.4112H95.6599V16.3528H89.5378V22.4112H85.7115V7.42478H89.5378V13.2493H95.6599V7.42478H99.4862Z" fill="var(--main-text)"/>
<path d="M112.291 19.3076H105.659L104.319 22.4112H100.387L107.38 7.42478H110.484L117.499 22.4112H113.63L112.291 19.3076ZM111.037 16.3741L108.975 11.5699L106.913 16.3741H111.037Z" fill="var(--main-text)"/>
<path d="M129.889 22.6025C128.77 22.6025 127.664 22.4537 126.573 22.1561C125.482 21.8585 124.596 21.4617 123.916 20.9657L125.128 18.2022C125.85 18.6557 126.623 19.0029 127.445 19.2438C128.267 19.4847 129.096 19.6052 129.932 19.6052C130.782 19.6052 131.427 19.4918 131.866 19.2651C132.32 19.0242 132.546 18.6911 132.546 18.266C132.546 17.8834 132.341 17.5716 131.93 17.3307C131.533 17.0898 130.768 16.8488 129.634 16.6079C128.231 16.3103 127.133 15.956 126.339 15.5451C125.546 15.1341 124.986 14.6523 124.66 14.0996C124.348 13.5469 124.192 12.8666 124.192 12.0589C124.192 11.1377 124.447 10.3158 124.958 9.59302C125.482 8.8561 126.212 8.28215 127.147 7.87118C128.097 7.44603 129.181 7.23346 130.399 7.23346C131.476 7.23346 132.518 7.38935 133.524 7.70112C134.545 7.99872 135.338 8.38844 135.905 8.87027L134.715 11.6337C133.354 10.6984 131.923 10.2307 130.421 10.2307C129.698 10.2307 129.117 10.3725 128.678 10.6559C128.238 10.9251 128.019 11.2865 128.019 11.74C128.019 12.0093 128.097 12.2289 128.252 12.399C128.408 12.569 128.699 12.7391 129.124 12.9092C129.549 13.065 130.18 13.228 131.016 13.3981C132.376 13.6957 133.446 14.057 134.226 14.4822C135.005 14.8932 135.558 15.375 135.884 15.9277C136.21 16.4804 136.373 17.1394 136.373 17.9046C136.373 19.3785 135.806 20.5334 134.672 21.3696C133.538 22.1915 131.944 22.6025 129.889 22.6025Z" fill="var(--main-text)"/>
<path d="M145.366 11.6975C146.613 11.6975 147.541 12.073 148.151 12.8241C148.76 13.561 149.065 14.6877 149.065 16.204V22.4112H145.281V16.3741C145.281 15.7505 145.168 15.2971 144.941 15.0136C144.728 14.7302 144.402 14.5885 143.963 14.5885C143.396 14.5885 142.943 14.7727 142.602 15.1412C142.277 15.4955 142.114 15.9773 142.114 16.5867V22.4112H138.33V7.42478H142.114V13.2068C142.496 12.7108 142.964 12.3352 143.517 12.0801C144.069 11.825 144.686 11.6975 145.366 11.6975Z" fill="var(--main-text)"/>
<path d="M156.472 22.5812C155.324 22.5812 154.311 22.3616 153.432 21.9222C152.568 21.4688 151.895 20.831 151.413 20.0091C150.945 19.1871 150.711 18.2235 150.711 17.1181C150.711 16.0127 150.945 15.0561 151.413 14.2484C151.895 13.4264 152.568 12.7958 153.432 12.3565C154.297 11.9171 155.31 11.6975 156.472 11.6975C157.634 11.6975 158.648 11.9171 159.512 12.3565C160.376 12.7958 161.042 13.4264 161.51 14.2484C161.992 15.0561 162.233 16.0127 162.233 17.1181C162.233 18.2235 161.992 19.1871 161.51 20.0091C161.042 20.831 160.376 21.4688 159.512 21.9222C158.648 22.3616 157.634 22.5812 156.472 22.5812ZM156.472 19.754C157.818 19.754 158.492 18.8754 158.492 17.1181C158.492 15.3608 157.818 14.4822 156.472 14.4822C155.126 14.4822 154.453 15.3608 154.453 17.1181C154.453 18.8754 155.126 19.754 156.472 19.754Z" fill="var(--main-text)"/>
<path d="M170.876 11.6975C171.769 11.6975 172.563 11.9313 173.257 12.399C173.966 12.8525 174.511 13.4973 174.894 14.3334C175.291 15.1695 175.489 16.1261 175.489 17.2031C175.489 18.2802 175.291 19.2297 174.894 20.0516C174.511 20.8594 173.973 21.4829 173.278 21.9222C172.584 22.3616 171.783 22.5812 170.876 22.5812C170.21 22.5812 169.594 22.4466 169.027 22.1773C168.474 21.9081 168.042 21.5467 167.73 21.0932V26.2375H163.946V11.9526H167.666V13.2918C167.964 12.7958 168.396 12.4061 168.963 12.1226C169.544 11.8392 170.182 11.6975 170.876 11.6975ZM169.728 19.754C170.38 19.754 170.876 19.5343 171.216 19.095C171.571 18.6557 171.748 18.0251 171.748 17.2031C171.748 16.3387 171.571 15.6797 171.216 15.2262C170.862 14.7585 170.359 14.5247 169.707 14.5247C169.055 14.5247 168.552 14.7515 168.198 15.2049C167.844 15.6584 167.666 16.3103 167.666 17.1606C167.666 17.9967 167.844 18.6415 168.198 19.095C168.552 19.5343 169.062 19.754 169.728 19.754Z" fill="var(--main-text)"/>
<path fill-rule="evenodd" clip-rule="evenodd" d="M19.9174 14.3148C19.9174 14.3148 14.1305 23.698 9.38607 23.698C1.08746 23.698 8.82117 5.82257 14.8736 5.82257C19.0969 5.82257 19.9174 14.3148 19.9174 14.3148Z" fill="var(--pink)"/>
<path fill-rule="evenodd" clip-rule="evenodd" d="M26.7938 26.1153C25.1452 27.8695 23.1106 29.2156 20.8512 30.0468C18.5917 30.878 16.1697 31.1715 13.7771 30.904C11.3845 30.6364 9.08717 29.8152 7.06723 28.5055C5.04729 27.1958 3.36032 25.4335 2.14008 23.3585C3.51197 25.2244 5.83881 26.4683 9.14749 26.4683C17.2982 26.4683 21.9249 20.1344 21.9249 20.1344C21.9249 20.1344 22.3251 25.1403 26.7837 26.1153H26.7938Z" fill="var(--pink)"/>
<path fill-rule="evenodd" clip-rule="evenodd" d="M29.2349 8.32721C30.4548 10.6581 31.0607 13.2613 30.9954 15.8912C30.9301 18.5211 30.1958 21.091 28.8617 23.3584C27.8065 22.7666 27.0263 21.7837 26.6895 20.6218L24.9208 15.3234L29.2349 8.32721Z" fill="#808080"/>
<path fill-rule="evenodd" clip-rule="evenodd" d="M15.5025 0.0134609C19.3895 0.010876 23.1349 1.47159 25.9935 4.10493L23.058 8.84189C21.9955 6.07838 19.8368 3.31152 15.637 3.31152C7.03581 3.31152 0.660542 12.7014 0.660542 18.5882C0.658647 19.3495 0.755849 20.1078 0.949711 20.844C0.0895766 18.5013 -0.192161 15.9857 0.128433 13.5108C0.449026 11.0359 1.36248 8.67496 2.79115 6.62867C4.21983 4.58237 6.1215 2.91118 8.33454 1.75714C10.5476 0.603093 13.0066 0.000301095 15.5025 0V0.0134609Z" fill="#808080"/>
</svg>
